<svg xmlns="http://www.w3.org/2000/svg" viewBox="0 0 211 36" width="211" height="36">
	<style>
		tspan { white-space:pre }
		.txt0 { font-size: 31px;line-height: 77px;fill: #6d6e70;font-weight: 400;font-family: "Nunito-Regular", "Nunito";text-anchor: middle } 
		.shp1 { fill: #8fc63d } 
	</style>
	<g id="Logo">
		<text id="Crowdme" style="transform: matrix(1,0,0,1,127,34)" >
			<tspan x="0" y="0" class="txt0">Crowdme</tspan>
		</text>
		<path id="Rounded Rectangle 13" class="shp1" d="M3.5 16C5.43 16 7 17.57 7 19.5L7 32.5C7 34.43 5.43 36 3.5 36C1.57 36 0 34.43 0 32.5L0 19.5C0 17.57 1.57 16 3.5 16Z" />
		<path id="Rounded Rectangle 13 copy" class="shp1" d="M16.5 0C18.43 0 20 1.57 20 3.5L20 32.5C20 34.43 18.43 36 16.5 36C14.57 36 13 34.43 13 32.5L13 3.5C13 1.57 14.57 0 16.5 0Z" />
		<path id="Ellipse 3" class="shp1" d="M3.5 7C5.43 7 7 8.57 7 10.5C7 12.43 5.43 14 3.5 14C1.57 14 0 12.43 0 10.5C0 8.57 1.57 7 3.5 7Z" />
		<path id="Rounded Rectangle 13 copy 2" class="shp1" d="M29.5 7C31.43 7 33 8.57 33 10.5L33 32.5C33 34.43 31.43 36 29.5 36C27.57 36 26 34.43 26 32.5L26 10.5C26 8.57 27.57 7 29.5 7Z" />
	</g>
</svg>