<svg xmlns="http://www.w3.org/2000/svg" viewBox="0 0 13 20" width="13" height="20">
	<style>
		tspan { white-space:pre }
		.shp0 { fill: #ffffff } 
	</style>
	<path id="Shape 663 copy 3" class="shp0" d="M13 9.99C13 9.36 12.74 8.76 12.28 8.31L4.39 0.68C3.43 -0.24 1.87 -0.24 0.91 0.68C0.45 1.13 0.19 1.73 0.19 2.37C0.19 3 0.45 3.6 0.91 4.05L7.06 9.99L0.91 15.93C0.45 16.38 0.19 16.98 0.19 17.62C0.19 18.25 0.45 18.85 0.91 19.3C1.38 19.75 2 19.99 2.65 19.99C3.31 19.99 3.93 19.75 4.39 19.3L12.28 11.67C12.74 11.22 13 10.63 13 9.99Z" />
</svg>