<svg xmlns="http://www.w3.org/2000/svg" viewBox="0 0 13 20" width="13" height="20">
	<style>
		tspan { white-space:pre }
		.shp0 { fill: #ffffff } 
	</style>
	<path id="Shape 663 copy 4" class="shp0" d="M0 9.99C0 9.36 0.26 8.76 0.72 8.31L8.61 0.68C9.57 -0.24 11.13 -0.24 12.09 0.68C12.55 1.13 12.81 1.73 12.81 2.37C12.81 3 12.55 3.6 12.09 4.05L5.94 9.99L12.09 15.93C12.55 16.38 12.81 16.98 12.81 17.62C12.81 18.25 12.55 18.85 12.09 19.3C11.62 19.75 11 19.99 10.35 19.99C9.69 19.99 9.07 19.75 8.61 19.3L0.72 11.67C0.26 11.22 0 10.63 0 9.99Z" />
</svg>