<svg xmlns="http://www.w3.org/2000/svg" viewBox="0 0 58 58" width="58" height="58">
	<style>
		tspan { white-space:pre }
		.shp0 { fill: #add135 } 
	</style>
	<path id="Shape 846" class="shp0" d="M57.03 17.4C56.5 17.4 56.07 16.97 56.07 16.43L56.07 3.45L45.29 14.23C46.12 15.14 46.89 16.11 47.59 17.14L47.61 17.12C47.75 17.33 47.89 17.56 48.03 17.78C48.06 17.84 48.1 17.89 48.13 17.95C50.69 21.99 52.2 26.76 52.2 31.89C52.2 46.31 40.51 58 26.1 58C11.68 58 0 46.31 0 31.89C0 17.48 11.68 5.79 26.1 5.79C31.56 5.79 36.63 7.48 40.82 10.35L39.44 11.73C35.62 9.2 31.04 7.72 26.1 7.72C12.71 7.72 1.93 18.5 1.93 31.89C1.93 32.24 1.97 32.58 1.99 32.92C6.05 28.86 14.01 20.9 14.01 20.9C14.39 20.52 15 20.52 15.38 20.9L25.63 31.15L54.85 1.93L41.57 1.93C41.03 1.93 40.6 1.5 40.6 0.96C40.6 0.43 41.03 0 41.57 0L57.03 0C57.57 0 58 0.43 58 0.96L58 16.43C58 16.97 57.57 17.4 57.03 17.4Z" />
</svg>